<?xml version="1.0" encoding="utf-8"?>
<!-- Generator: Adobe Illustrator 17.1.0, SVG Export Plug-In . SVG Version: 6.00 Build 0)  -->
<!DOCTYPE svg PUBLIC "-//W3C//DTD SVG 1.1//EN" "http://www.w3.org/Graphics/SVG/1.1/DTD/svg11.dtd">
<svg version="1.1" id="Layer_1" xmlns="http://www.w3.org/2000/svg" xmlns:xlink="http://www.w3.org/1999/xlink" x="0px" y="0px"
	 viewBox="0 0 800 200" enable-background="new 0 0 800 200" xml:space="preserve">
<g>
	<path fill="#FCF3E8" d="M781.652,34.018H222.089l-8.15-21.734c-1.033-2.754-4.285-5.008-7.226-5.008H56.961
		c-2.942,0-6.193,2.253-7.226,5.008l-36.356,96.95c-1.033,2.754,0.125,6.343,2.572,7.974L127.393,191.5
		c2.448,1.632,6.453,1.631,8.9,0l35.66-23.775h609.699c2.942,0,5.348-2.407,5.348-5.348V39.366
		C787,36.425,784.593,34.018,781.652,34.018z"/>
	<g>
		<path fill="#F98728" d="M286.078,125.256c8.852,0,16.091-3.503,21.712-10.51l11.551,11.895
			c-9.165,10.319-19.964,15.477-32.397,15.477c-12.436,0-22.677-3.927-30.722-11.781c-8.047-7.854-12.068-17.767-12.068-29.74
			c0-11.972,4.1-21.962,12.3-29.97c8.2-8.008,18.229-12.011,30.086-12.011c13.241,0,24.33,5.043,33.263,15.129l-11.204,12.705
			c-5.699-7.083-12.781-10.626-21.251-10.626c-6.777,0-12.571,2.214-17.382,6.641c-4.813,4.429-7.219,10.394-7.219,17.902
			c0,7.507,2.271,13.533,6.815,18.075C274.103,122.985,279.61,125.256,286.078,125.256z"/>
		<path fill="#F98728" d="M396.441,130.048c-8.164,7.969-18.211,11.954-30.146,11.954s-21.984-3.985-30.144-11.954
			c-8.162-7.969-12.242-17.882-12.242-29.74c0-11.857,4.08-21.771,12.242-29.74c8.16-7.969,18.209-11.953,30.144-11.953
			s21.982,3.984,30.146,11.953c8.16,7.97,12.242,17.884,12.242,29.74C408.683,112.166,404.602,122.079,396.441,130.048z
			 M390.32,100.366c0-7.198-2.31-13.34-6.931-18.422c-4.619-5.082-10.298-7.622-17.034-7.622c-6.739,0-12.417,2.54-17.036,7.622
			c-4.621,5.082-6.93,11.224-6.93,18.422c0,7.2,2.309,13.322,6.93,18.363c4.619,5.044,10.296,7.566,17.036,7.566
			c6.736,0,12.415-2.522,17.034-7.566C388.01,113.688,390.32,107.566,390.32,100.366z"/>
		<path fill="#F98728" d="M481.345,71.031c7.699,7.045,11.551,16.844,11.551,29.393c0,12.551-3.755,22.484-11.261,29.798
			c-7.508,7.316-18.962,10.972-34.361,10.972h-27.603V60.463h28.529C462.596,60.463,473.645,63.985,481.345,71.031z
			 M468.122,119.019c4.427-4.158,6.64-10.201,6.64-18.132c0-7.929-2.213-14.033-6.64-18.307c-4.429-4.273-11.224-6.409-20.385-6.409
			h-10.049v49.086h11.434C457.36,125.256,463.693,123.176,468.122,119.019z"/>
		<path fill="#F98728" d="M562.44,60.463v16.054h-40.192v16.631h36.15v15.36h-36.15v16.747h41.463v15.938H504.23V60.463H562.44z"/>
	</g>
	<g>
		<path fill="#384859" d="M645.251,87.258c0,12.935-5.122,21.29-15.361,25.062l20.442,28.874h-22.174l-17.903-25.756h-12.472v25.756
			h-18.018V60.463h30.607c12.549,0,21.5,2.118,26.852,6.352C642.574,71.05,645.251,77.864,645.251,87.258z M623.537,96.844
			c2.233-2.001,3.349-5.178,3.349-9.528c0-4.35-1.153-7.334-3.464-8.951c-2.31-1.617-6.353-2.425-12.127-2.425h-13.512v23.907
			h13.166C617.106,99.846,621.303,98.847,623.537,96.844z"/>
		<path fill="#384859" d="M663.727,60.463h18.018v80.731h-18.018V60.463z"/>
		<path fill="#384859" d="M734.627,76.054v65.139h-18.018V76.054h-22.867V60.463h63.753v15.591H734.627z"/>
	</g>
	<g>
		<path fill="#F98728" d="M88.329,34.941c-1.413,0.408-3.59,0.106-4.838-0.672L66.674,23.786c-1.248-0.778-2.702-0.292-3.23,1.081
			l-30.927,80.299c-0.529,1.373,0.033,3.174,1.247,4.003l95.863,65.457c1.215,0.829,3.202,0.829,4.417,0l95.863-65.457
			c1.215-0.829,1.776-2.631,1.247-4.003l-30.927-80.299c-0.529-1.372-1.982-1.859-3.23-1.081l-16.816,10.483
			c-1.248,0.778-3.425,1.081-4.838,0.672l-40.939-11.828c-1.413-0.408-3.725-0.408-5.138,0L88.329,34.941z"/>
		<g>
			<g>
				<path fill="#CE5F15" d="M129.665,137.194c1.194,0.859,3.148,0.859,4.342,0l19.588-12.166c1.194-0.859,0.968-1.562-0.503-1.562
					h-42.511c-1.471,0-1.697,0.703-0.503,1.562L129.665,137.194z"/>
			</g>
			<g>
				<path fill="#CE5F15" d="M79.931,73.317c-1.162-0.901-0.962-1.288,0.445-0.859l34.473,10.497c1.407,0.428,2.634,1.98,2.726,3.448
					l0.897,14.251c0.092,1.468-0.783,1.932-1.946,1.031L79.931,73.317z"/>
			</g>
			<g>
				<path fill="#CE5F15" d="M53.364,51.039l12.368-3.209c1.431-0.361,2.26-1.818,1.845-3.236l-5.054-17.355L53.364,51.039z"/>
			</g>
			<path fill="#CE5F15" d="M63.365,129.391l13.371,9.119l12.943-21.634c0.749-1.27,0.307-1.738-0.989-1.043L63.365,129.391z"/>
			<path fill="#CE5F15" d="M38.977,112.731l17.355,11.846l13.665-34.256c0.548-1.364,0.04-1.752-1.11-0.842L38.977,112.731z"/>
			<path fill="#CE5F15" d="M107.087,29.512l14.721,8.223c1.284,0.709,1.925,0.16,1.417-1.217l-3.851-10.549L107.087,29.512z"/>
			<g>
				<path fill="#CE5F15" d="M210.309,51.039l-12.368-3.209c-1.431-0.361-2.26-1.818-1.845-3.236l5.054-17.355L210.309,51.039z"/>
			</g>
			<path fill="#CE5F15" d="M200.308,129.391l-13.371,9.119l-12.943-21.634c-0.749-1.27-0.307-1.738,0.989-1.043L200.308,129.391z"/>
			<path fill="#CE5F15" d="M224.696,112.731l-17.355,11.846l-13.665-34.256c-0.548-1.364-0.04-1.752,1.11-0.842L224.696,112.731z"/>
			<path fill="#CE5F15" d="M156.586,29.512l-14.721,8.223c-1.284,0.709-1.925,0.16-1.417-1.217l3.851-10.549L156.586,29.512z"/>
			<g>
				<path fill="#CE5F15" d="M183.741,73.317c1.162-0.901,0.962-1.288-0.445-0.859l-34.473,10.497
					c-1.407,0.428-2.634,1.98-2.726,3.448l-0.897,14.251c-0.092,1.468,0.783,1.932,1.946,1.031L183.741,73.317z"/>
			</g>
		</g>
	</g>
</g>
</svg>
